<mxfile host="app.diagrams.net" modified="2023-05-06T10:14:30.535Z" agent="Mozilla/5.0 (Windows NT 10.0; Win64; x64; rv:102.0) Gecko/20100101 Firefox/102.0" version="21.2.9" etag="ebclvw-WeZS2mAXwrETN" type="github">
  <diagram name="Page-1" id="XVAX3JMv7FcWVR3Oqlwc">
    <mxGraphModel>
      <root>
        <mxCell id="0" />
        <mxCell id="1" parent="0" />
      </root>
    </mxGraphModel>
  </diagram>
</mxfile>
